<?xml version="1.0" encoding="UTF-8" standalone="no"?><!-- Generator: Gravit.io --><svg xmlns="http://www.w3.org/2000/svg" xmlns:xlink="http://www.w3.org/1999/xlink" style="isolation:isolate" viewBox="0 0 250 250" width="250pt" height="250pt"><defs><clipPath id="_clipPath_8QjFc6cXK6xJdDyr9On6FRwsbYC6lGLW"><rect width="250" height="250"/></clipPath></defs><g clip-path="url(#_clipPath_8QjFc6cXK6xJdDyr9On6FRwsbYC6lGLW)"><rect width="250" height="250" style="fill:rgb(242,241,241)"/><line x1="430" y1="154" x2="478" y2="203" vector-effect="non-scaling-stroke" stroke-width="1" stroke="rgb(153,35,94)" stroke-linejoin="miter" stroke-linecap="square" stroke-miterlimit="3"/><path d=" M -49 -56 L 9 -47 L -38 -28 L -49 -56 Z " fill="rgb(255,255,255)" vector-effect="non-scaling-stroke" stroke-width="1" stroke="rgb(153,35,94)" stroke-linejoin="miter" stroke-linecap="square" stroke-miterlimit="3"/><g><g><path d=" M 16.5 70.452 L 150.461 70.452 L 150.461 206.488 L 16.5 206.488 L 16.5 70.452 Z " fill="none"/></g><g><mask id="_mask_SGqh7hBb2PQ9c7KSIyOkoQN35wPeAQbZ" x="-200%" y="-200%" width="400%" height="400%"><rect x="-200%" y="-200%" width="400%" height="400%" style="fill:white;"/><line x1="130.646" y1="249" x2="130.646" y2="194.32" fill="black" stroke="none"/></mask><line x1="130.646" y1="249" x2="130.646" y2="194.32" mask="url(#_mask_SGqh7hBb2PQ9c7KSIyOkoQN35wPeAQbZ)" vector-effect="non-scaling-stroke" stroke-width="20" stroke="rgb(255,255,255)" stroke-linejoin="miter" stroke-linecap="butt" stroke-miterlimit="4"/><g><path d=" M 130.646 57.68 L 43.292 193.65 C 43.292 193.65 70.903 218.25 130.646 218.25 C 130.646 218.25 218 193.65 218 193.65 L 130.646 57.68 Z " fill="rgb(255,255,255)"/><path d=" M 130.646 23.51 L 63.451 126 C 63.451 126 74.659 144.45 130.646 144.45 C 130.646 144.45 197.841 126 197.841 126 L 130.646 23.51 Z " fill="rgb(255,255,255)"/><path d=" M 130.646 3 L 83.609 64.5 C 83.609 64.5 93.319 76.8 130.646 76.8 C 130.646 76.8 177.683 64.5 177.683 64.5 L 130.646 3 Z " fill="rgb(255,255,255)"/></g><path d=" M 188.353 147.5 L 181.493 136.83 C 171.346 140.846 155.381 144.45 130.646 144.45 C 105.912 144.45 89.946 140.846 79.799 136.83 L 72.939 147.5 C 84.92 152.519 103.123 156.75 130.646 156.75 C 158.169 156.75 176.373 152.519 188.353 147.5 Z  M 169.868 83.331 L 162.839 72.612 C 155.616 74.9 145.275 76.8 130.646 76.8 C 116.018 76.8 105.676 74.9 98.453 72.606 L 91.424 83.325 C 100.321 86.523 112.933 89.1 130.646 89.1 C 148.359 89.1 160.971 86.523 169.868 83.331 Z " fill="rgb(186,236,187)"/></g></g></g></svg>