<?xml version="1.0" encoding="UTF-8" standalone="no"?><!-- Generator: Gravit.io --><svg xmlns="http://www.w3.org/2000/svg" xmlns:xlink="http://www.w3.org/1999/xlink" style="isolation:isolate" viewBox="0 0 360 360" width="360pt" height="360pt"><defs><clipPath id="_clipPath_4dFHJbJCOCRXLMeMDrLHz82Y58Eq2eAF"><rect width="360" height="360"/></clipPath></defs><g clip-path="url(#_clipPath_4dFHJbJCOCRXLMeMDrLHz82Y58Eq2eAF)"><g><path d=" M 82.5 103.5 L 202.5 103.5 L 202.5 223.5 L 82.5 223.5 L 82.5 103.5 Z " fill="none"/></g><line x1="430" y1="154" x2="478" y2="203" vector-effect="non-scaling-stroke" stroke-width="1" stroke="rgb(153,35,94)" stroke-linejoin="miter" stroke-linecap="square" stroke-miterlimit="3"/><path d=" M -49 -56 L 9 -47 L -38 -28 L -49 -56 Z " fill="rgb(255,255,255)" vector-effect="non-scaling-stroke" stroke-width="1" stroke="rgb(153,35,94)" stroke-linejoin="miter" stroke-linecap="square" stroke-miterlimit="3"/><g><path d=" M 321.7 4 L 39.3 4 C 19.885 4 4 20.335 4 40.3 L 4 367 L 74.6 294.4 L 321.7 294.4 C 341.115 294.4 357 278.065 357 258.1 L 357 40.3 C 357 20.335 341.115 4 321.7 4 Z " fill="rgb(176,150,117)"/><path d=" M 189.75 32.65 L 161.131 79.874 L 142.818 79.874 L 142.818 112.442 C 142.818 115.281 143.715 118.169 145.475 120.226 C 147.258 122.262 149.745 123.299 152.205 123.299 L 152.205 150.439 L 147.511 150.439 L 147.511 139.583 L 119.352 139.583 L 119.352 150.439 L 114.659 150.439 L 114.659 139.583 L 86.5 139.583 L 86.5 172.151 C 86.5 174.99 87.396 177.878 89.175 179.935 C 90.935 181.97 93.432 183.007 95.886 183.007 L 95.886 259 L 166.284 259 L 166.284 226.432 C 166.284 211.233 176.609 199.291 189.75 199.291 C 202.891 199.291 213.216 211.233 213.216 226.432 L 213.216 259 L 283.614 259 L 283.614 183.007 C 286.068 183.007 288.565 181.97 290.344 179.935 C 292.104 177.872 293 174.995 293 172.151 L 293 139.583 L 264.841 139.583 L 264.841 150.439 L 260.148 150.439 L 260.148 139.583 L 231.989 139.583 L 231.989 150.439 L 227.295 150.439 L 227.295 123.299 C 229.75 123.299 232.247 122.262 234.025 120.226 C 235.785 118.164 236.682 115.287 236.682 112.442 L 236.682 79.874 L 218.369 79.874 L 189.75 32.65 Z  M 152.205 90.73 L 161.591 90.73 L 161.591 101.586 L 185.057 101.586 L 185.057 90.73 L 194.443 90.73 L 194.443 101.586 L 217.909 101.586 L 217.909 90.73 L 227.295 90.73 L 227.295 112.442 L 152.205 112.442 L 152.205 90.73 Z  M 95.886 150.439 L 105.273 150.439 L 105.273 161.295 L 128.739 161.295 L 128.739 150.439 L 138.125 150.439 L 138.125 161.295 L 161.591 161.295 L 161.591 150.439 L 170.977 150.439 L 170.977 172.151 L 95.886 172.151 L 95.886 150.439 Z  M 208.523 150.439 L 217.909 150.439 L 217.909 161.295 L 241.375 161.295 L 241.375 150.439 L 250.761 150.439 L 250.761 161.295 L 274.227 161.295 L 274.227 150.439 L 283.614 150.439 L 283.614 172.151 L 208.523 172.151 L 208.523 150.439 Z  M 128.739 199.291 C 131.564 199.291 133.432 201.452 133.432 204.719 L 133.432 221.004 L 124.045 221.004 L 124.045 204.719 C 124.045 201.452 125.913 199.291 128.739 199.291 Z  M 246.068 199.291 C 248.893 199.291 250.761 201.452 250.761 204.719 L 250.761 221.004 L 241.375 221.004 L 241.375 204.719 C 241.375 201.452 243.243 199.291 246.068 199.291 Z " fill="rgb(255,255,255)"/><path d=" M 10 15.5 L 352 15.5 L 352 360 L 10 360 L 10 15.5 Z " fill="none"/></g></g></svg>