<?xml version="1.0" encoding="UTF-8" standalone="no"?><!-- Generator: Gravit.io --><svg xmlns="http://www.w3.org/2000/svg" xmlns:xlink="http://www.w3.org/1999/xlink" style="isolation:isolate" viewBox="0 0 360 360" width="360pt" height="360pt"><defs><clipPath id="_clipPath_oKZ9k7MpT0qQX7clN2YQRsqaO4EYRJBr"><rect width="360" height="360"/></clipPath></defs><g clip-path="url(#_clipPath_oKZ9k7MpT0qQX7clN2YQRsqaO4EYRJBr)"><g><path d=" M 82.5 103.5 L 202.5 103.5 L 202.5 223.5 L 82.5 223.5 L 82.5 103.5 Z " fill="none"/></g><line x1="430" y1="154" x2="478" y2="203" vector-effect="non-scaling-stroke" stroke-width="1" stroke="rgb(153,35,94)" stroke-linejoin="miter" stroke-linecap="square" stroke-miterlimit="3"/><path d=" M -49 -56 L 9 -47 L -38 -28 L -49 -56 Z " fill="rgb(255,255,255)" vector-effect="non-scaling-stroke" stroke-width="1" stroke="rgb(153,35,94)" stroke-linejoin="miter" stroke-linecap="square" stroke-miterlimit="3"/><g><path d=" M 321.7 4 L 39.3 4 C 19.885 4 4 20.335 4 40.3 L 4 367 L 74.6 294.4 L 321.7 294.4 C 341.115 294.4 357 278.065 357 258.1 L 357 40.3 C 357 20.335 341.115 4 321.7 4 Z " fill="rgb(231,113,125)"/><path d=" M 10 15.5 L 352 15.5 L 352 360 L 10 360 L 10 15.5 Z " fill="none"/></g><g><g><path d=" M 39.5 39.577 L 316.398 39.577 L 316.398 279 L 39.5 279 L 39.5 39.577 Z " fill="none"/><path d=" M 270.248 69.505 L 85.65 69.505 L 85.65 169.264 C 85.65 191.311 106.302 209.168 131.799 209.168 L 201.024 209.168 C 226.522 209.168 247.173 191.311 247.173 169.264 L 247.173 139.337 L 270.248 139.337 C 283.055 139.337 293.323 130.458 293.323 119.385 L 293.323 89.457 C 293.323 78.383 283.055 69.505 270.248 69.505 Z " fill="rgb(255,252,252)"/><path d=" M 270.248 108.281 L 270.248 119.385 L 247.173 119.385 L 247.173 89.457 L 270.248 89.457 L 270.248 108.281 Z " fill="rgb(215,112,112)"/><path d=" M 77.565 249.072 L 285.238 249.072 L 285.238 229.12 L 77.565 229.12 L 77.565 249.072 Z " fill="rgb(255,252,252)"/></g><rect x="144.013" y="30" width="12.492" height="28.314" transform="matrix(1,0,0,1,0,0)" fill="rgb(255,250,250)"/><rect x="173.993" y="39.993" width="12.492" height="19.154" transform="matrix(1,0,0,1,0,0)" fill="rgb(255,250,250)"/></g></g></svg>