<?xml version="1.0" encoding="UTF-8" standalone="no"?><!-- Generator: Gravit.io --><svg xmlns="http://www.w3.org/2000/svg" xmlns:xlink="http://www.w3.org/1999/xlink" style="isolation:isolate" viewBox="0 0 360 360" width="360pt" height="360pt"><defs><clipPath id="_clipPath_45QatQnnumHHGwg1xcofFTGa6eq9RgUi"><rect width="360" height="360"/></clipPath></defs><g clip-path="url(#_clipPath_45QatQnnumHHGwg1xcofFTGa6eq9RgUi)"><clipPath id="_clipPath_wNua3cbJyhBf30yY9Erhm4DxjOquQI2L"><rect x="0" y="0" width="360" height="360" transform="matrix(1,0,0,1,0,0)" fill="rgb(255,255,255)"/></clipPath><g clip-path="url(#_clipPath_wNua3cbJyhBf30yY9Erhm4DxjOquQI2L)"><g><g><path d=" M 82.5 103.5 L 202.5 103.5 L 202.5 223.5 L 82.5 223.5 L 82.5 103.5 L 82.5 103.5 Z " fill="none"/></g><mask id="_mask_10KLr3dEvyC9fHqo4uL1XerHrGqFexup" x="-200%" y="-200%" width="400%" height="400%"><rect x="-200%" y="-200%" width="400%" height="400%" style="fill:white;"/><line x1="430" y1="154" x2="478" y2="203" fill="black" stroke="none"/></mask><line x1="430" y1="154" x2="478" y2="203" mask="url(#_mask_10KLr3dEvyC9fHqo4uL1XerHrGqFexup)" vector-effect="non-scaling-stroke" stroke-width="2" stroke="rgb(153,35,94)" stroke-opacity="100" stroke-linejoin="miter" stroke-linecap="square" stroke-miterlimit="3"/><mask id="_mask_LAoRasctUIsxBmccS05w00qKK54sPe1V" x="-200%" y="-200%" width="400%" height="400%"><rect x="-200%" y="-200%" width="400%" height="400%" style="fill:white;"/><path d=" M -49 -56 L 9 -47 L -38 -28 L -49 -56 L -49 -56 Z " fill="black" stroke="none"/></mask><path d=" M -49 -56 L 9 -47 L -38 -28 L -49 -56 L -49 -56 Z " fill="rgb(255,255,255)" mask="url(#_mask_LAoRasctUIsxBmccS05w00qKK54sPe1V)" vector-effect="non-scaling-stroke" stroke-width="2" stroke="rgb(153,35,94)" stroke-opacity="100" stroke-linejoin="miter" stroke-linecap="square" stroke-miterlimit="3"/><path d=" M -49 -56 L 9 -47 L -38 -28 L -49 -56 L -49 -56 Z " fill="rgb(255,255,255)"/><g><path d=" M 321.7 4 L 39.3 4 C 19.885 4 4 20.335 4 40.3 L 4 367 L 74.6 294.4 L 321.7 294.4 C 341.115 294.4 357 278.065 357 258.1 L 357 40.3 C 357 20.335 341.115 4 321.7 4 Z " fill="rgb(231,113,125)"/><path d=" M 10 15.5 L 352 15.5 L 352 360 L 10 360 L 10 15.5 Z " fill="none"/></g><g><g><path d=" M 39.5 39.577 L 316.398 39.577 L 316.398 279 L 39.5 279 L 39.5 39.577 L 39.5 39.577 Z " fill="none"/><path d=" M 270.248 108.281 L 270.248 119.385 L 247.173 119.385 L 247.173 89.457 L 270.248 89.457 L 270.248 108.281 L 270.248 108.281 Z " fill="rgb(215,112,112)"/></g></g></g></g><g><path d=" M 68.5 111.742 L 157.755 37.15 L 157.755 186.334 L 68.5 111.742 Z " fill="rgb(255,255,255)"/><path d=" M 215.134 86.24 L 138.629 86.24 L 138.629 137.243 L 215.134 137.243 C 232.985 137.243 247.01 151.269 247.01 169.12 C 247.01 186.971 232.985 200.997 215.134 200.997 L 196.007 200.997 L 196.007 252 L 215.134 252 C 261.036 252 298.013 215.023 298.013 169.12 C 298.013 123.218 261.036 86.24 215.134 86.24 Z " fill="rgb(255,255,255)"/></g></g></svg>