<?xml version="1.0" encoding="UTF-8" standalone="no"?><!-- Generator: Gravit.io --><svg xmlns="http://www.w3.org/2000/svg" xmlns:xlink="http://www.w3.org/1999/xlink" style="isolation:isolate" viewBox="0 0 360 360" width="360pt" height="360pt"><defs><clipPath id="_clipPath_MxWnwg52ONh2kPwEPJX39sKlvjb5taqN"><rect width="360" height="360"/></clipPath></defs><g clip-path="url(#_clipPath_MxWnwg52ONh2kPwEPJX39sKlvjb5taqN)"><g><path d=" M 82.5 103.5 L 202.5 103.5 L 202.5 223.5 L 82.5 223.5 L 82.5 103.5 Z " fill="none"/></g><line x1="430" y1="154" x2="478" y2="203" vector-effect="non-scaling-stroke" stroke-width="1" stroke="rgb(153,35,94)" stroke-linejoin="miter" stroke-linecap="square" stroke-miterlimit="3"/><path d=" M -49 -56 L 9 -47 L -38 -28 L -49 -56 Z " fill="rgb(255,255,255)" vector-effect="non-scaling-stroke" stroke-width="1" stroke="rgb(153,35,94)" stroke-linejoin="miter" stroke-linecap="square" stroke-miterlimit="3"/><g><path d=" M 321.7 4 L 39.3 4 C 19.885 4 4 20.335 4 40.3 L 4 367 L 74.6 294.4 L 321.7 294.4 C 341.115 294.4 357 278.065 357 258.1 L 357 40.3 C 357 20.335 341.115 4 321.7 4 Z " fill="rgb(97,195,95)"/><path d=" M 10 15.5 L 352 15.5 L 352 360 L 10 360 L 10 15.5 Z " fill="none"/></g><g><mask id="_mask_DPbdkf7k83UVnGoiOGIcTGnWhFf4eZFu" x="-200%" y="-200%" width="400%" height="400%"><rect x="-200%" y="-200%" width="400%" height="400%" style="fill:white;"/><line x1="184.75" y1="261" x2="184.75" y2="212.766" fill="black" stroke="none"/></mask><line x1="184.75" y1="261" x2="184.75" y2="212.766" mask="url(#_mask_DPbdkf7k83UVnGoiOGIcTGnWhFf4eZFu)" vector-effect="non-scaling-stroke" stroke-width="20" stroke="rgb(255,255,255)" stroke-linejoin="miter" stroke-linecap="butt" stroke-miterlimit="4"/><g><path d=" M 184.75 92.234 L 106.5 212.175 C 106.5 212.175 131.233 233.875 184.75 233.875 C 184.75 233.875 263 212.175 263 212.175 L 184.75 92.234 Z " fill="rgb(255,255,255)"/><path d=" M 184.75 62.092 L 124.558 152.5 C 124.558 152.5 134.598 168.775 184.75 168.775 C 184.75 168.775 244.942 152.5 244.942 152.5 L 184.75 62.092 Z " fill="rgb(255,255,255)"/><path d=" M 184.75 44 L 142.615 98.25 C 142.615 98.25 151.313 109.1 184.75 109.1 C 184.75 109.1 226.885 98.25 226.885 98.25 L 184.75 44 Z " fill="rgb(255,255,255)"/></g><path d=" M 236.443 171.466 L 230.298 162.053 C 221.208 165.596 206.907 168.775 184.75 168.775 C 162.593 168.775 148.292 165.596 139.202 162.053 L 133.057 171.466 C 143.789 175.893 160.095 179.625 184.75 179.625 C 209.405 179.625 225.711 175.893 236.443 171.466 Z  M 219.884 114.861 L 213.588 105.406 C 207.117 107.424 197.854 109.1 184.75 109.1 C 171.646 109.1 162.383 107.424 155.912 105.4 L 149.616 114.856 C 157.585 117.677 168.883 119.95 184.75 119.95 C 200.617 119.95 211.915 117.677 219.884 114.861 Z " fill="rgb(186,236,187)"/></g></g></svg>